<svg width="32" height="32" viewBox="0 0 32 32" fill="none" xmlns="http://www.w3.org/2000/svg">
<path d="M1.76876 1.76876C2.3079 1.22978 3.03904 0.927002 3.80139 0.927002C4.56373 0.927002 5.29487 1.22978 5.83401 1.76876L16 11.9348L26.166 1.76876C26.7082 1.24506 27.4345 0.955275 28.1883 0.961825C28.9421 0.968375 29.6632 1.27074 30.1962 1.80378C30.7293 2.33683 31.0316 3.05792 31.0382 3.81173C31.0448 4.56555 30.755 5.29178 30.2313 5.83401L20.0653 16L30.2313 26.166C30.755 26.7082 31.0448 27.4345 31.0382 28.1883C31.0316 28.9421 30.7293 29.6632 30.1962 30.1962C29.6632 30.7293 28.9421 31.0316 28.1883 31.0382C27.4345 31.0448 26.7082 30.755 26.166 30.2313L16 20.0653L5.83401 30.2313C5.29178 30.755 4.56555 31.0448 3.81173 31.0382C3.05792 31.0316 2.33683 30.7293 1.80378 30.1962C1.27074 29.6632 0.968375 28.9421 0.961825 28.1883C0.955275 27.4345 1.24506 26.7082 1.76876 26.166L11.9348 16L1.76876 5.83401C1.22978 5.29487 0.927002 4.56373 0.927002 3.80139C0.927002 3.03904 1.22978 2.3079 1.76876 1.76876V1.76876Z" fill="#9747FF"/>
</svg>
