<svg width="46" height="8" viewBox="0 0 46 8" fill="none" xmlns="http://www.w3.org/2000/svg">
<path d="M23 7.80948C25.104 7.80948 26.8095 6.1039 26.8095 3.99995C26.8095 1.89601 25.104 0.19043 23 0.19043C20.8961 0.19043 19.1905 1.89601 19.1905 3.99995C19.1905 6.1039 20.8961 7.80948 23 7.80948Z" fill="#9747FF"/>
<path d="M3.95241 7.80948C6.05635 7.80948 7.76193 6.1039 7.76193 3.99995C7.76193 1.89601 6.05635 0.19043 3.95241 0.19043C1.84847 0.19043 0.142883 1.89601 0.142883 3.99995C0.142883 6.1039 1.84847 7.80948 3.95241 7.80948Z" fill="#9747FF"/>
<path d="M42.0476 7.80948C44.1516 7.80948 45.8571 6.1039 45.8571 3.99995C45.8571 1.89601 44.1516 0.19043 42.0476 0.19043C39.9437 0.19043 38.2381 1.89601 38.2381 3.99995C38.2381 6.1039 39.9437 7.80948 42.0476 7.80948Z" fill="#9747FF"/>
</svg>
